<?xml version="1.0" encoding="UTF-8"?>
<svg xmlns="http://www.w3.org/2000/svg" xmlns:xlink="http://www.w3.org/1999/xlink" width="384pt" height="384pt" viewBox="0 0 384 384" version="1.1">
<g id="surface1">
<path style=" stroke:none;fill-rule:nonzero;fill:rgb(19.215686%,47.058824%,77.647059%);fill-opacity:1;" d="M 37.5 0 L 346.5 0 C 367.210938 0 384 16.789062 384 37.5 L 384 346.5 C 384 367.210938 367.210938 384 346.5 384 L 37.5 384 C 16.789062 384 0 367.210938 0 346.5 L 0 37.5 C 0 16.789062 16.789062 0 37.5 0 Z M 37.5 0 "/>
<path style=" stroke:none;fill-rule:nonzero;fill:rgb(19.215686%,47.058824%,77.647059%);fill-opacity:1;" d="M 37.5 0 L 346.5 0 C 367.210938 0 384 16.789062 384 37.5 L 384 346.5 C 384 367.210938 367.210938 384 346.5 384 L 37.5 384 C 16.789062 384 0 367.210938 0 346.5 L 0 37.5 C 0 16.789062 16.789062 0 37.5 0 Z M 37.5 0 "/>
<path style=" stroke:none;fill-rule:evenodd;fill:rgb(100%,100%,100%);fill-opacity:1;" d="M 237.703125 305.566406 L 237.703125 343.113281 C 243.808594 346.242188 251.027344 348.589844 259.359375 350.152344 C 267.695312 351.71875 276.476562 352.5 285.710938 352.5 C 294.710938 352.5 303.257812 351.640625 311.359375 349.917969 C 319.457031 348.199219 326.558594 345.363281 332.664062 341.410156 C 338.765625 337.460938 343.597656 332.300781 347.160156 325.925781 C 350.71875 319.550781 352.5 311.667969 352.5 302.28125 C 352.5 295.476562 351.484375 289.511719 349.449219 284.390625 C 347.414062 279.265625 344.480469 274.710938 340.644531 270.722656 C 336.8125 266.730469 332.214844 263.152344 326.851562 259.984375 C 321.492188 256.816406 315.449219 253.824219 308.71875 251.011719 C 303.789062 248.976562 299.367188 247 295.453125 245.085938 C 291.542969 243.167969 288.214844 241.210938 285.476562 239.21875 C 282.738281 237.222656 280.625 235.113281 279.140625 232.882812 C 277.652344 230.652344 276.910156 228.128906 276.910156 225.3125 C 276.910156 222.734375 277.574219 220.40625 278.902344 218.332031 C 280.234375 216.261719 282.113281 214.480469 284.539062 212.996094 C 286.964844 211.507812 289.9375 210.355469 293.457031 209.535156 C 296.980469 208.710938 300.890625 208.300781 305.195312 208.300781 C 308.328125 208.300781 311.632812 208.535156 315.113281 209.003906 C 318.597656 209.476562 322.097656 210.199219 325.621094 211.175781 C 329.140625 212.152344 332.566406 213.386719 335.890625 214.871094 C 339.214844 216.359375 342.289062 218.078125 345.105469 220.035156 L 345.105469 184.953125 C 339.394531 182.761719 333.152344 181.140625 326.382812 180.085938 C 319.613281 179.027344 311.847656 178.5 303.085938 178.5 C 294.164062 178.5 285.710938 179.457031 277.730469 181.375 C 269.75 183.289062 262.726562 186.28125 256.660156 190.351562 C 250.597656 194.417969 245.804688 199.601562 242.28125 205.898438 C 238.761719 212.191406 237 219.722656 237 228.480469 C 237 239.667969 240.226562 249.210938 246.683594 257.109375 C 253.140625 265.011719 262.941406 271.699219 276.085938 277.175781 C 281.25 279.285156 286.0625 281.359375 290.523438 283.394531 C 294.984375 285.425781 298.839844 287.539062 302.085938 289.730469 C 305.332031 291.917969 307.894531 294.304688 309.773438 296.886719 C 311.652344 299.464844 312.589844 302.398438 312.589844 305.6875 C 312.589844 308.109375 312.003906 310.359375 310.832031 312.433594 C 309.65625 314.503906 307.875 316.304688 305.488281 317.828125 C 303.101562 319.355469 300.128906 320.546875 296.570312 321.40625 C 293.007812 322.269531 288.84375 322.699219 284.070312 322.699219 C 275.929688 322.699219 267.871094 321.269531 259.886719 318.414062 C 251.90625 315.5625 244.511719 311.277344 237.703125 305.566406 Z M 174.585938 213.0625 L 222.75 213.0625 L 222.75 182.25 L 88.5 182.25 L 88.5 213.0625 L 136.429688 213.0625 L 136.429688 350.25 L 174.585938 350.25 Z M 174.585938 213.0625 "/>
</g>
</svg>
